<?xml version="1.0" encoding="iso-8859-1"?>
<!-- Uploaded to: SVG Repo, www.svgrepo.com, Generator: SVG Repo Mixer Tools -->
<svg fill="#000000" height="800px" width="800px" version="1.1" id="Layer_1" xmlns="http://www.w3.org/2000/svg" xmlns:xlink="http://www.w3.org/1999/xlink" 
	 viewBox="0 0 512.001 512.001" xml:space="preserve">
<g>
	<g>
		<path d="M455.755,97.754h-38.594l-0.124-22.357c-0.096-17.43-14.354-31.609-31.785-31.609h-63.718
			c-17.58,0-31.879,14.352-31.785,31.96l0.121,22.007h-67.334l-0.124-22.357c-0.096-17.43-14.354-31.609-31.785-31.609h-63.718
			c-17.58,0-31.879,14.352-31.785,31.96l0.121,22.007H56.245C25.232,97.754,0,122.986,0,153.999v33.989
			c0,15.376,10.976,28.237,25.503,31.161v217.279c0,17.525,14.258,31.785,31.785,31.785h397.426
			c17.525,0,31.785-14.258,31.785-31.785V219.149c14.528-2.924,25.502-15.785,25.502-31.161v-33.989
			C512,122.986,486.768,97.754,455.755,97.754z M383.662,77.172l0.115,20.582h-60.521l-0.112-20.582H383.662z M189.04,77.172
			l0.115,20.582h-60.519l-0.114-20.582H189.04z M478.616,186.388L478.616,186.388h-8.81c-9.218,0-16.692,7.474-16.692,16.692
			v231.749H58.887V203.08c0-9.218-7.474-16.692-16.692-16.692h-8.811v-32.389c0-12.606,10.256-22.861,22.861-22.861
			c6.52,0,392.028,0,399.51,0c12.606,0,22.861,10.256,22.861,22.861V186.388z"/>
	</g>
</g>
<g>
	<g>
		<path d="M317.724,267.423c-4.362-8.6-13.064-13.942-22.709-13.942H281.24l9.776-47.799c2.074-10.132-3.284-20.526-12.745-24.713
			c-2.843-1.259-5.861-1.896-8.967-1.896c-7.047,0-13.736,3.395-17.892,9.079l-66.744,91.259
			c-5.691,7.783-6.515,17.959-2.151,26.564c4.367,8.596,13.068,13.936,22.708,13.936H219l-9.778,47.805
			c-2.071,10.132,3.289,20.523,12.746,24.707c9.654,4.273,20.808,1.089,26.86-7.184l66.739-91.253
			C321.261,286.204,322.088,276.025,317.724,267.423z M252.234,324.031l3.572-17.466c1.005-4.912-0.251-10.015-3.421-13.899
			c-3.169-3.884-7.919-6.138-12.932-6.138h-18.628l27.183-37.166l-3.572,17.468c-1.005,4.912,0.251,10.015,3.421,13.899
			s7.919,6.138,12.932,6.138h18.626L252.234,324.031z"/>
	</g>
</g>
</svg>